<svg xmlns="http://www.w3.org/2000/svg" width="379.239" height="77.054" viewBox="0 0 379.239 77.054">
  <g id="Group_723" data-name="Group 723" transform="translate(-1467.382 -2878.481)">
    <path id="Path_782" data-name="Path 782" d="M1467.382,2878.481h16.86v28.532h32.747v-28.532h16.862V2955h-16.862v-33.072h-32.747V2955h-16.86Z" transform="translate(0 0)" fill="#fff"/>
    <path id="Path_783" data-name="Path 783" d="M1533.754,2878.481h28.533a72.316,72.316,0,0,1,10,.7,27.372,27.372,0,0,1,9.023,2.809,17.316,17.316,0,0,1,6.486,5.892q2.485,3.781,2.486,10.051a16.055,16.055,0,0,1-3.622,10.754,19.91,19.91,0,0,1-9.565,6.106v.217a21.831,21.831,0,0,1,6.862,2.108,18.321,18.321,0,0,1,5.3,4,17.089,17.089,0,0,1,3.406,5.675,19.983,19.983,0,0,1,1.187,6.917,18.409,18.409,0,0,1-2.592,10.106,20.417,20.417,0,0,1-6.7,6.537,29.332,29.332,0,0,1-9.242,3.566A49.4,49.4,0,0,1,1565.1,2955h-31.342Zm16.86,30.585h12.212a17.209,17.209,0,0,0,3.839-.43,10.683,10.683,0,0,0,3.4-1.406,7.315,7.315,0,0,0,2.433-2.595,7.788,7.788,0,0,0,.92-3.892,7.052,7.052,0,0,0-1.028-3.942,7.153,7.153,0,0,0-2.65-2.434,12.652,12.652,0,0,0-3.673-1.242,22.006,22.006,0,0,0-4-.377h-11.458Zm0,31.667h15.131a18.619,18.619,0,0,0,3.945-.431,10.425,10.425,0,0,0,3.623-1.514,8.637,8.637,0,0,0,2.648-2.808,8.124,8.124,0,0,0,1.025-4.217,6.754,6.754,0,0,0-1.35-4.375,8.564,8.564,0,0,0-3.406-2.54,17.466,17.466,0,0,0-4.431-1.191,33.125,33.125,0,0,0-4.431-.323h-12.754Z" transform="translate(86.562 0)" fill="#fff"/>
    <path id="Path_784" data-name="Path 784" d="M1524.477,2928.413l16.4-46.191a2.8,2.8,0,0,0-2.643-3.74h-27.628a2.8,2.8,0,0,0-2.643,3.735l16.3,46.2Z" transform="translate(52.714 0)" fill="#db0812"/>
    <path id="Path_785" data-name="Path 785" d="M1537.087,2886.22l-18.83,54.976a2.8,2.8,0,0,0,2.649,3.712H1534.5a2.8,2.8,0,0,0,2.8-2.8V2886.22Z" transform="translate(66.15 10.093)" fill="#db0812"/>
    <path id="Path_786" data-name="Path 786" d="M1503.547,2886.22v55.886a2.8,2.8,0,0,0,2.8,2.8h12.885a2.8,2.8,0,0,0,2.661-3.68l-18.132-55.008Z" transform="translate(47.166 10.093)" fill="#db0812"/>
    <g id="Group_719" data-name="Group 719" transform="translate(1695.852 2878.543)">
      <path id="Path_787" data-name="Path 787" d="M1566.536,2878.508h4.846v8.2h9.408v-8.2h4.844v21.987h-4.844v-9.5h-9.408v9.5h-4.846Z" transform="translate(-1566.536 -2878.508)" fill="#fff"/>
      <path id="Path_788" data-name="Path 788" d="M1575.5,2878.508h14.94v4.47h-10.095v4.1h9.533v4.472h-9.533v4.472H1591v4.473h-15.5Z" transform="translate(-1554.848 -2878.508)" fill="#fff"/>
      <path id="Path_789" data-name="Path 789" d="M1582.83,2878.508h6.585l9.346,15.277h.062v-15.277h4.843v21.987h-6.334l-9.6-15.652h-.06v15.652h-4.846Z" transform="translate(-1545.286 -2878.508)" fill="#fff"/>
      <path id="Path_790" data-name="Path 790" d="M1592.736,2878.508h8.509a14.934,14.934,0,0,1,3.185.325,7.5,7.5,0,0,1,2.638,1.088,5.392,5.392,0,0,1,1.8,2.05,6.912,6.912,0,0,1,.668,3.212,6.452,6.452,0,0,1-1.21,3.962,5.453,5.453,0,0,1-3.539,2.062l5.59,9.288h-5.809l-4.6-8.791h-2.389v8.791h-4.846Zm4.846,9.1h2.855c.438,0,.9-.016,1.382-.048a4.236,4.236,0,0,0,1.32-.279,2.27,2.27,0,0,0,.979-.73,2.233,2.233,0,0,0,.387-1.4,2.3,2.3,0,0,0-.343-1.335,2.265,2.265,0,0,0-.868-.76,3.892,3.892,0,0,0-1.21-.357,9.861,9.861,0,0,0-1.336-.092h-3.166Z" transform="translate(-1532.367 -2878.508)" fill="#fff"/>
      <path id="Path_791" data-name="Path 791" d="M1607.452,2891.115l-8.26-12.606h6.025l4.659,8.229,4.938-8.229h5.745l-8.26,12.606v9.38h-4.846Z" transform="translate(-1523.948 -2878.508)" fill="#fff"/>
      <path id="Path_792" data-name="Path 792" d="M1566.536,2890.323h7.33l5.06,14.348h.065l5.09-14.348h7.3v21.987h-4.844v-16.862h-.062l-5.776,16.862H1577l-5.56-16.862h-.06v16.862h-4.846Z" transform="translate(-1566.536 -2863.099)" fill="#fff"/>
      <path id="Path_793" data-name="Path 793" d="M1586.7,2890.323h4.01l9.562,21.987H1594.8l-1.892-4.657h-8.541l-1.832,4.657H1577.2Zm1.864,6.4-2.669,6.831h5.371Z" transform="translate(-1552.634 -2863.099)" fill="#fff"/>
      <path id="Path_794" data-name="Path 794" d="M1586.819,2890.323h8.509a14.929,14.929,0,0,1,3.185.328,7.5,7.5,0,0,1,2.638,1.085,5.4,5.4,0,0,1,1.8,2.05,6.914,6.914,0,0,1,.668,3.212,6.441,6.441,0,0,1-1.21,3.961,5.438,5.438,0,0,1-3.539,2.064l5.59,9.287h-5.809l-4.6-8.789h-2.389v8.789h-4.846Zm4.846,9.1h2.855c.438,0,.9-.016,1.382-.046a4.375,4.375,0,0,0,1.32-.278,2.28,2.28,0,0,0,.979-.732,2.222,2.222,0,0,0,.387-1.4,2.294,2.294,0,0,0-.343-1.334,2.237,2.237,0,0,0-.869-.76,3.876,3.876,0,0,0-1.21-.36,9.789,9.789,0,0,0-1.336-.092h-3.166Z" transform="translate(-1540.083 -2863.099)" fill="#fff"/>
      <path id="Path_795" data-name="Path 795" d="M1606.815,2896.011a3.46,3.46,0,0,0-1.6-1.1,5.734,5.734,0,0,0-1.908-.357,5.029,5.029,0,0,0-1.088.124,4.231,4.231,0,0,0-1.058.387,2.329,2.329,0,0,0-.806.7,1.932,1.932,0,0,0,.436,2.576,7.031,7.031,0,0,0,1.88.9q1.13.374,2.436.747a9.948,9.948,0,0,1,2.438,1.056,5.746,5.746,0,0,1,1.878,1.832,5.582,5.582,0,0,1,.749,3.076,7.065,7.065,0,0,1-.684,3.2,6.528,6.528,0,0,1-1.848,2.27,7.9,7.9,0,0,1-2.7,1.334,12.453,12.453,0,0,1-7.221-.216,9.96,9.96,0,0,1-3.415-2.113l3.447-3.792a4.991,4.991,0,0,0,1.878,1.54,5.256,5.256,0,0,0,3.542.4,3.876,3.876,0,0,0,1.085-.416,2.323,2.323,0,0,0,.776-.717,1.764,1.764,0,0,0,.3-1.023,1.855,1.855,0,0,0-.763-1.569,7.017,7.017,0,0,0-1.908-.979q-1.151-.4-2.484-.806a11.112,11.112,0,0,1-2.484-1.088,5.948,5.948,0,0,1-1.91-1.8,5.145,5.145,0,0,1-.762-2.952,6.6,6.6,0,0,1,.7-3.1,6.737,6.737,0,0,1,1.864-2.237,8.053,8.053,0,0,1,2.687-1.351,10.932,10.932,0,0,1,3.137-.452,12.383,12.383,0,0,1,3.6.529,8.346,8.346,0,0,1,3.136,1.771Z" transform="translate(-1530.328 -2863.416)" fill="#fff"/>
      <path id="Path_796" data-name="Path 796" d="M1601.672,2890.323h4.844v8.2h9.41v-8.2h4.843v21.987h-4.843v-9.5h-9.41v9.5h-4.844Z" transform="translate(-1520.712 -2863.099)" fill="#fff"/>
      <path id="Path_797" data-name="Path 797" d="M1619.072,2890.323h4.009l9.563,21.987h-5.465l-1.892-4.657h-8.542l-1.832,4.657h-5.343Zm1.864,6.4-2.668,6.831h5.371Z" transform="translate(-1510.413 -2863.099)" fill="#fff"/>
      <path id="Path_798" data-name="Path 798" d="M1619.273,2890.323h4.844v17.517h8.977v4.47h-13.821Z" transform="translate(-1497.757 -2863.099)" fill="#fff"/>
      <path id="Path_799" data-name="Path 799" d="M1625.971,2890.323h4.843v17.517h8.977v4.47h-13.82Z" transform="translate(-1489.022 -2863.099)" fill="#fff"/>
      <path id="Path_800" data-name="Path 800" d="M1566.536,2902.137h8.2a20.872,20.872,0,0,1,2.873.2,7.81,7.81,0,0,1,2.592.806,5.007,5.007,0,0,1,1.862,1.694,5.162,5.162,0,0,1,.717,2.886,4.608,4.608,0,0,1-1.041,3.09,5.7,5.7,0,0,1-2.746,1.756v.063a6.211,6.211,0,0,1,1.97.606,5.222,5.222,0,0,1,1.523,1.148,4.89,4.89,0,0,1,.977,1.631,5.713,5.713,0,0,1,.341,1.986,5.276,5.276,0,0,1-.744,2.905,5.858,5.858,0,0,1-1.926,1.879,8.485,8.485,0,0,1-2.655,1.025,14.156,14.156,0,0,1-2.935.309h-9Zm4.846,8.791h3.507a4.912,4.912,0,0,0,1.1-.127,2.951,2.951,0,0,0,.979-.4,2.071,2.071,0,0,0,.7-.744,2.245,2.245,0,0,0,.267-1.118,2.04,2.04,0,0,0-.3-1.133,2.073,2.073,0,0,0-.762-.7,3.621,3.621,0,0,0-1.055-.356,6.171,6.171,0,0,0-1.15-.109h-3.29Zm0,9.1h4.346a5.211,5.211,0,0,0,1.136-.124,2.978,2.978,0,0,0,1.04-.433,2.477,2.477,0,0,0,.76-.809,2.326,2.326,0,0,0,.3-1.209,1.946,1.946,0,0,0-.387-1.258,2.459,2.459,0,0,0-.98-.731,5.049,5.049,0,0,0-1.274-.341,9.354,9.354,0,0,0-1.272-.094h-3.664Z" transform="translate(-1566.536 -2847.692)" fill="#fff"/>
      <path id="Path_801" data-name="Path 801" d="M1574.461,2902.137h8.506a14.915,14.915,0,0,1,3.185.327,7.507,7.507,0,0,1,2.641,1.087,5.384,5.384,0,0,1,1.8,2.049,6.948,6.948,0,0,1,.668,3.214,6.462,6.462,0,0,1-1.209,3.961,5.454,5.454,0,0,1-3.539,2.063l5.587,9.286h-5.807l-4.6-8.789h-2.389v8.789h-4.845Zm4.845,9.1h2.855c.435,0,.894-.015,1.38-.048a4.333,4.333,0,0,0,1.322-.278,2.264,2.264,0,0,0,.977-.731,2.216,2.216,0,0,0,.387-1.4,2.133,2.133,0,0,0-1.21-2.094,3.859,3.859,0,0,0-1.21-.358,9.582,9.582,0,0,0-1.336-.092h-3.166Z" transform="translate(-1556.2 -2847.692)" fill="#fff"/>
      <path id="Path_802" data-name="Path 802" d="M1581.873,2913.447a12.363,12.363,0,0,1,.887-4.781,10.508,10.508,0,0,1,2.468-3.65,10.872,10.872,0,0,1,3.758-2.313,14.364,14.364,0,0,1,9.5,0,10.875,10.875,0,0,1,3.758,2.313,10.509,10.509,0,0,1,2.468,3.65,13.365,13.365,0,0,1,0,9.564,10.472,10.472,0,0,1-2.468,3.647,10.859,10.859,0,0,1-3.758,2.316,14.4,14.4,0,0,1-9.5,0,10.856,10.856,0,0,1-3.758-2.316,10.471,10.471,0,0,1-2.468-3.647A12.368,12.368,0,0,1,1581.873,2913.447Zm5.032,0a8.014,8.014,0,0,0,.481,2.841,6.49,6.49,0,0,0,1.381,2.237,6.294,6.294,0,0,0,2.159,1.475,7.743,7.743,0,0,0,5.62,0,6.264,6.264,0,0,0,2.159-1.475,6.488,6.488,0,0,0,1.382-2.237,8.612,8.612,0,0,0,0-5.667,6.437,6.437,0,0,0-1.382-2.251,6.311,6.311,0,0,0-2.159-1.477,7.777,7.777,0,0,0-5.62,0,6.341,6.341,0,0,0-2.159,1.477,6.439,6.439,0,0,0-1.381,2.251A8.066,8.066,0,0,0,1586.906,2913.447Z" transform="translate(-1546.534 -2848.009)" fill="#fff"/>
      <path id="Path_803" data-name="Path 803" d="M1591.523,2902.137h5.281l3.507,14.1h.062l4.595-14.1h4.5l4.564,14.472h.063l3.7-14.472h4.908l-6.429,21.987h-4.316l-4.846-15.217h-.062l-4.845,15.217h-4.159Z" transform="translate(-1533.948 -2847.692)" fill="#fff"/>
      <path id="Path_804" data-name="Path 804" d="M1604.65,2902.137h6.585l9.348,15.279h.06v-15.279h4.844v21.987h-6.334l-9.6-15.65h-.06v15.65h-4.846Z" transform="translate(-1516.828 -2847.692)" fill="#fff"/>
    </g>
  </g>
</svg>
