<svg xmlns="http://www.w3.org/2000/svg" width="280.744" height="57.043" viewBox="0 0 280.744 57.043">
  <g id="Group_720" data-name="Group 720" transform="translate(-1467.383 -2878.48)">
    <path id="Path_782" data-name="Path 782" d="M1467.382,2878.481h12.481V2899.6h24.242v-21.122h12.483v56.646h-12.483v-24.483h-24.242v24.483h-12.481Z" transform="translate(0 0)" fill="#242624"/>
    <path id="Path_783" data-name="Path 783" d="M1533.754,2878.481h21.122a53.529,53.529,0,0,1,7.4.52,20.267,20.267,0,0,1,6.68,2.08,12.822,12.822,0,0,1,4.8,4.362,13.369,13.369,0,0,1,1.841,7.441,11.887,11.887,0,0,1-2.682,7.961,14.738,14.738,0,0,1-7.081,4.52v.16a16.164,16.164,0,0,1,5.08,1.561,13.56,13.56,0,0,1,3.922,2.96,12.65,12.65,0,0,1,2.521,4.2,14.8,14.8,0,0,1,.878,5.121,13.628,13.628,0,0,1-1.919,7.481,15.111,15.111,0,0,1-4.96,4.839,21.7,21.7,0,0,1-6.842,2.64,36.563,36.563,0,0,1-7.562.8h-23.2Zm12.481,22.642h9.04a12.739,12.739,0,0,0,2.842-.318,7.9,7.9,0,0,0,2.52-1.041,5.414,5.414,0,0,0,1.8-1.921,5.768,5.768,0,0,0,.681-2.881,5.222,5.222,0,0,0-.761-2.919,5.3,5.3,0,0,0-1.961-1.8,9.368,9.368,0,0,0-2.719-.919,16.3,16.3,0,0,0-2.96-.279h-8.483Zm0,23.443h11.2a13.787,13.787,0,0,0,2.92-.319,7.72,7.72,0,0,0,2.682-1.121,6.4,6.4,0,0,0,1.96-2.079,6.013,6.013,0,0,0,.759-3.122,5,5,0,0,0-1-3.239,6.341,6.341,0,0,0-2.521-1.88,12.92,12.92,0,0,0-3.28-.882,24.545,24.545,0,0,0-3.28-.239h-9.441Z" transform="translate(46.843 0)" fill="#242624"/>
    <path id="Path_784" data-name="Path 784" d="M1520.146,2915.445l12.14-34.2a2.075,2.075,0,0,0-1.956-2.768h-20.452a2.075,2.075,0,0,0-1.957,2.765l12.065,34.2Z" transform="translate(28.526 0)" fill="#db0812"/>
    <path id="Path_785" data-name="Path 785" d="M1532.157,2886.219l-13.939,40.7a2.074,2.074,0,0,0,1.961,2.748h10.064a2.074,2.074,0,0,0,2.074-2.074v-41.372Z" transform="translate(35.797 5.462)" fill="#db0812"/>
    <path id="Path_786" data-name="Path 786" d="M1503.547,2886.219v41.372a2.074,2.074,0,0,0,2.074,2.074h9.539a2.075,2.075,0,0,0,1.97-2.724l-13.423-40.722Z" transform="translate(25.524 5.462)" fill="#db0812"/>
    <g id="Group_719" data-name="Group 719" transform="translate(1636.515 2878.527)">
      <path id="Path_787" data-name="Path 787" d="M1566.536,2878.508h3.587v6.067h6.965v-6.067h3.585v16.276h-3.585v-7.035h-6.965v7.035h-3.587Z" transform="translate(-1566.536 -2878.508)" fill="#d4d4d4"/>
      <path id="Path_788" data-name="Path 788" d="M1575.5,2878.508h11.06v3.309h-7.473v3.035h7.057v3.311h-7.057v3.311h7.886v3.311H1575.5Z" transform="translate(-1560.211 -2878.508)" fill="#d4d4d4"/>
      <path id="Path_789" data-name="Path 789" d="M1582.83,2878.508h4.875l6.919,11.309h.046v-11.309h3.586v16.276h-4.689l-7.1-11.587h-.044v11.587h-3.587Z" transform="translate(-1555.036 -2878.508)" fill="#d4d4d4"/>
      <path id="Path_790" data-name="Path 790" d="M1592.736,2878.508h6.3a11.036,11.036,0,0,1,2.358.241,5.548,5.548,0,0,1,1.953.805,3.989,3.989,0,0,1,1.332,1.518,5.114,5.114,0,0,1,.494,2.377,4.774,4.774,0,0,1-.9,2.933,4.034,4.034,0,0,1-2.62,1.526l4.138,6.876h-4.3l-3.4-6.507h-1.769v6.507h-3.587Zm3.587,6.736h2.113c.324,0,.664-.012,1.023-.036a3.119,3.119,0,0,0,.977-.207,1.674,1.674,0,0,0,.725-.541,1.649,1.649,0,0,0,.286-1.035,1.7,1.7,0,0,0-.254-.988,1.677,1.677,0,0,0-.643-.563,2.9,2.9,0,0,0-.9-.265,7.331,7.331,0,0,0-.989-.068h-2.344Z" transform="translate(-1548.045 -2878.508)" fill="#d4d4d4"/>
      <path id="Path_791" data-name="Path 791" d="M1605.306,2887.84l-6.115-9.333h4.461l3.449,6.091,3.655-6.091h4.253l-6.115,9.333v6.944h-3.588Z" transform="translate(-1543.489 -2878.508)" fill="#d4d4d4"/>
      <path id="Path_792" data-name="Path 792" d="M1566.536,2890.323h5.426l3.746,10.622h.048l3.768-10.622h5.4V2906.6h-3.586v-12.482h-.046l-4.276,12.482h-2.736l-4.116-12.482h-.044V2906.6h-3.587Z" transform="translate(-1566.536 -2870.169)" fill="#d4d4d4"/>
      <path id="Path_793" data-name="Path 793" d="M1584.23,2890.323h2.968l7.079,16.277h-4.046l-1.4-3.447h-6.323l-1.356,3.447H1577.2Zm1.38,4.736-1.975,5.057h3.976Z" transform="translate(-1559.013 -2870.169)" fill="#d4d4d4"/>
      <path id="Path_794" data-name="Path 794" d="M1586.819,2890.323h6.3a11.079,11.079,0,0,1,2.357.243,5.556,5.556,0,0,1,1.953.8,4,4,0,0,1,1.332,1.518,5.119,5.119,0,0,1,.495,2.378,4.767,4.767,0,0,1-.9,2.932,4.027,4.027,0,0,1-2.62,1.529l4.138,6.874h-4.3l-3.4-6.506h-1.769v6.506h-3.587Zm3.587,6.736h2.114c.324,0,.664-.012,1.023-.034a3.244,3.244,0,0,0,.977-.206,1.685,1.685,0,0,0,.725-.542,1.644,1.644,0,0,0,.286-1.034,1.7,1.7,0,0,0-.254-.988,1.656,1.656,0,0,0-.643-.563,2.871,2.871,0,0,0-.9-.266,7.259,7.259,0,0,0-.989-.068h-2.344Z" transform="translate(-1552.221 -2870.169)" fill="#d4d4d4"/>
      <path id="Path_795" data-name="Path 795" d="M1603.565,2894.47a2.561,2.561,0,0,0-1.185-.815,4.24,4.24,0,0,0-1.412-.265,3.726,3.726,0,0,0-.805.092,3.136,3.136,0,0,0-.783.287,1.726,1.726,0,0,0-.6.519,1.429,1.429,0,0,0,.322,1.907,5.215,5.215,0,0,0,1.392.667q.837.277,1.8.552a7.351,7.351,0,0,1,1.8.782,4.25,4.25,0,0,1,1.391,1.356,4.13,4.13,0,0,1,.554,2.277,5.23,5.23,0,0,1-.507,2.366,4.835,4.835,0,0,1-1.368,1.681,5.854,5.854,0,0,1-2,.987,9.212,9.212,0,0,1-5.346-.161,7.357,7.357,0,0,1-2.528-1.564l2.552-2.806a3.705,3.705,0,0,0,1.39,1.14,3.9,3.9,0,0,0,2.622.3,2.884,2.884,0,0,0,.8-.309,1.721,1.721,0,0,0,.575-.53,1.306,1.306,0,0,0,.22-.758,1.374,1.374,0,0,0-.565-1.162,5.216,5.216,0,0,0-1.412-.725q-.852-.3-1.839-.6a8.226,8.226,0,0,1-1.839-.805,4.4,4.4,0,0,1-1.414-1.332,3.809,3.809,0,0,1-.564-2.186,4.886,4.886,0,0,1,.517-2.3,4.989,4.989,0,0,1,1.38-1.656,5.972,5.972,0,0,1,1.989-1,8.1,8.1,0,0,1,2.322-.334,9.171,9.171,0,0,1,2.668.391,6.188,6.188,0,0,1,2.321,1.311Z" transform="translate(-1546.942 -2870.341)" fill="#d4d4d4"/>
      <path id="Path_796" data-name="Path 796" d="M1601.672,2890.323h3.586v6.07h6.966v-6.07h3.585V2906.6h-3.585v-7.035h-6.966v7.035h-3.586Z" transform="translate(-1541.738 -2870.169)" fill="#d4d4d4"/>
      <path id="Path_797" data-name="Path 797" d="M1616.6,2890.323h2.968l7.079,16.277H1622.6l-1.4-3.447h-6.323l-1.356,3.447h-3.956Zm1.38,4.736-1.975,5.057h3.976Z" transform="translate(-1536.165 -2870.169)" fill="#d4d4d4"/>
      <path id="Path_798" data-name="Path 798" d="M1619.273,2890.323h3.585v12.968h6.646v3.309h-10.231Z" transform="translate(-1529.316 -2870.169)" fill="#d4d4d4"/>
      <path id="Path_799" data-name="Path 799" d="M1625.971,2890.323h3.585v12.968h6.646v3.309h-10.231Z" transform="translate(-1524.589 -2870.169)" fill="#d4d4d4"/>
      <path id="Path_800" data-name="Path 800" d="M1566.536,2902.137h6.069a15.359,15.359,0,0,1,2.127.151,5.773,5.773,0,0,1,1.919.6,3.709,3.709,0,0,1,1.378,1.254,3.821,3.821,0,0,1,.531,2.137,3.411,3.411,0,0,1-.771,2.288,4.218,4.218,0,0,1-2.033,1.3v.046a4.6,4.6,0,0,1,1.458.448,3.868,3.868,0,0,1,1.128.85,3.619,3.619,0,0,1,.723,1.208,4.227,4.227,0,0,1,.253,1.47,3.906,3.906,0,0,1-.551,2.15,4.333,4.333,0,0,1-1.426,1.391,6.276,6.276,0,0,1-1.965.759,10.494,10.494,0,0,1-2.173.229h-6.666Zm3.587,6.508h2.6a3.614,3.614,0,0,0,.817-.094,2.181,2.181,0,0,0,.725-.3,1.533,1.533,0,0,0,.515-.551,1.66,1.66,0,0,0,.2-.827,1.512,1.512,0,0,0-.219-.839,1.532,1.532,0,0,0-.564-.517,2.659,2.659,0,0,0-.781-.264,4.564,4.564,0,0,0-.851-.081h-2.436Zm0,6.734h3.217a3.874,3.874,0,0,0,.841-.092,2.2,2.2,0,0,0,.77-.321,1.835,1.835,0,0,0,.563-.6,1.721,1.721,0,0,0,.219-.9,1.443,1.443,0,0,0-.286-.931,1.825,1.825,0,0,0-.725-.541,3.733,3.733,0,0,0-.943-.252,6.936,6.936,0,0,0-.942-.07h-2.712Z" transform="translate(-1566.536 -2861.831)" fill="#d4d4d4"/>
      <path id="Path_801" data-name="Path 801" d="M1574.461,2902.137h6.3a11.041,11.041,0,0,1,2.358.243,5.543,5.543,0,0,1,1.955.805,3.983,3.983,0,0,1,1.332,1.516,5.145,5.145,0,0,1,.495,2.379,4.785,4.785,0,0,1-.9,2.932,4.038,4.038,0,0,1-2.62,1.527l4.136,6.875h-4.3l-3.4-6.506h-1.769v6.506h-3.587Zm3.587,6.738h2.113c.322,0,.662-.011,1.022-.036a3.215,3.215,0,0,0,.979-.206,1.676,1.676,0,0,0,.723-.542,1.638,1.638,0,0,0,.286-1.035,1.58,1.58,0,0,0-.9-1.551,2.869,2.869,0,0,0-.9-.264,7.05,7.05,0,0,0-.989-.068h-2.344Z" transform="translate(-1560.943 -2861.831)" fill="#d4d4d4"/>
      <path id="Path_802" data-name="Path 802" d="M1581.873,2910.447a9.154,9.154,0,0,1,.657-3.539,7.77,7.77,0,0,1,1.827-2.7,8.048,8.048,0,0,1,2.782-1.712,10.628,10.628,0,0,1,7.035,0,8.046,8.046,0,0,1,2.782,1.712,7.774,7.774,0,0,1,1.827,2.7,9.893,9.893,0,0,1,0,7.08,7.744,7.744,0,0,1-1.827,2.7,8.033,8.033,0,0,1-2.782,1.715,10.653,10.653,0,0,1-7.035,0,8.035,8.035,0,0,1-2.782-1.715,7.739,7.739,0,0,1-1.827-2.7A9.154,9.154,0,0,1,1581.873,2910.447Zm3.725,0a5.926,5.926,0,0,0,.356,2.1,4.806,4.806,0,0,0,1.022,1.656,4.667,4.667,0,0,0,1.6,1.092,5.734,5.734,0,0,0,4.16,0,4.639,4.639,0,0,0,1.6-1.092,4.81,4.81,0,0,0,1.023-1.656,6.378,6.378,0,0,0,0-4.195,4.767,4.767,0,0,0-1.023-1.666,4.672,4.672,0,0,0-1.6-1.094,5.757,5.757,0,0,0-4.16,0,4.7,4.7,0,0,0-1.6,1.094,4.763,4.763,0,0,0-1.022,1.666A5.969,5.969,0,0,0,1585.6,2910.447Z" transform="translate(-1555.712 -2862.003)" fill="#d4d4d4"/>
      <path id="Path_803" data-name="Path 803" d="M1591.523,2902.137h3.91l2.6,10.439h.046l3.4-10.439h3.335l3.379,10.714h.046l2.736-10.714h3.633l-4.759,16.277h-3.195l-3.587-11.265h-.046l-3.587,11.265h-3.079Z" transform="translate(-1548.901 -2861.831)" fill="#d4d4d4"/>
      <path id="Path_804" data-name="Path 804" d="M1604.65,2902.137h4.875l6.92,11.312h.044v-11.312h3.586v16.277h-4.689l-7.1-11.586h-.044v11.586h-3.587Z" transform="translate(-1539.636 -2861.831)" fill="#d4d4d4"/>
    </g>
  </g>
</svg>
